<svg id="Layer_3" enable-background="new 0 0 64 64" height="512" viewBox="0 0 64 64" width="512" xmlns="http://www.w3.org/2000/svg"><g><path d="m31 28c0-1.654-1.346-3-3-3h-24c-1.654 0-3 1.346-3 3 0 1.302.839 2.402 2 2.816v10.369c-1.161.413-2 1.513-2 2.815s.839 2.402 2 2.816v10.369c-1.161.413-2 1.513-2 2.815 0 1.654 1.346 3 3 3h24c1.654 0 3-1.346 3-3 0-1.302-.839-2.402-2-2.816v-10.368c1.161-.414 2-1.514 2-2.816s-.839-2.402-2-2.816v-10.368c1.161-.414 2-1.514 2-2.816zm-26 13v-10h22v10zm-1-14h24c.552 0 1 .449 1 1s-.448 1-1 1h-24c-.552 0-1-.449-1-1s.448-1 1-1zm1 30v-10h22v10zm23 4h-24c-.552 0-1-.449-1-1s.448-1 1-1h24c.552 0 1 .449 1 1s-.448 1-1 1zm0-16h-24c-.552 0-1-.449-1-1s.448-1 1-1h24c.552 0 1 .449 1 1s-.448 1-1 1z"/><path d="m63 44c0-1.302-.839-2.402-2-2.816v-10.368c1.161-.414 2-1.514 2-2.816 0-1.654-1.346-3-3-3h-24c-1.654 0-3 1.346-3 3 0 1.302.839 2.402 2 2.816v10.369c-1.161.414-2 1.514-2 2.816s.839 2.402 2 2.816v10.369c-1.161.414-2 1.514-2 2.816 0 1.654 1.346 3 3 3h24c1.654 0 3-1.346 3-3 0-1.302-.839-2.402-2-2.816v-10.37c1.161-.414 2-1.514 2-2.816zm-26 13v-10h22v10zm22-26v10h-22v-10zm-23-4h24c.552 0 1 .449 1 1s-.448 1-1 1h-24c-.552 0-1-.449-1-1s.448-1 1-1zm0 16h24c.552 0 1 .449 1 1s-.448 1-1 1h-24c-.552 0-1-.449-1-1s.448-1 1-1zm24 18h-24c-.552 0-1-.449-1-1s.448-1 1-1h24c.552 0 1 .449 1 1s-.448 1-1 1z"/><path d="m19 14h12c.347 0 .668-.18.851-.474.183-.295.199-.663.044-.973l-2-4c-.17-.339-.516-.553-.895-.553h-8c-.379 0-.725.214-.895.553l-2 4c-.155.31-.139.678.044.973.183.294.504.474.851.474zm2.618-4h6.764l1 2h-8.764z"/><path d="m34.105 8.553-2 4c-.155.31-.139.678.044.973.183.294.504.474.851.474h12c.347 0 .668-.18.851-.474.183-.295.199-.663.044-.973l-2-4c-.17-.339-.516-.553-.895-.553h-8c-.379 0-.725.214-.895.553zm8.277 1.447 1 2h-8.764l1-2z"/><path d="m12 22h12c.347 0 .668-.18.851-.474.183-.295.199-.663.044-.973l-2-4c-.17-.339-.516-.553-.895-.553h-8c-.379 0-.725.214-.895.553l-2 4c-.155.31-.139.678.044.973.183.294.504.474.851.474zm2.618-4h6.764l1 2h-8.764z"/><path d="m36 16h-8c-.379 0-.725.214-.895.553l-2 4c-.155.31-.139.678.044.973.183.294.504.474.851.474h12c.347 0 .668-.18.851-.474.183-.295.199-.663.044-.973l-2-4c-.17-.339-.516-.553-.895-.553zm-8.382 4 1-2h6.764l1 2z"/><path d="m41.105 16.553-2 4c-.155.31-.139.678.044.973.183.294.504.474.851.474h12c.347 0 .668-.18.851-.474.183-.295.199-.663.044-.973l-2-4c-.17-.339-.516-.553-.895-.553h-8c-.379 0-.725.214-.895.553zm8.277 1.447 1 2h-8.764l1-2z"/><path d="m26 7h12c.347 0 .668-.18.851-.474.183-.295.199-.663.044-.973l-2-4c-.17-.339-.516-.553-.895-.553h-8c-.379 0-.725.214-.895.553l-2 4c-.155.31-.139.678.044.973.183.294.504.474.851.474zm2.618-4h6.764l1 2h-8.764z"/></g></svg>