<svg id="Layer_1" enable-background="new 0 0 512 512" height="512" viewBox="0 0 512 512" width="512" xmlns="http://www.w3.org/2000/svg"><path d="m398.167 312.648c-15.934 0-28.897 12.935-28.897 28.835 0 15.915 12.963 28.863 28.897 28.863 15.919 0 28.869-12.948 28.869-28.863.001-15.9-12.95-28.835-28.869-28.835zm0 42.586c-7.6 0-13.782-6.168-13.782-13.751 0-7.567 6.183-13.723 13.782-13.723 7.584 0 13.755 6.156 13.755 13.723 0 7.582-6.17 13.751-13.755 13.751z"/><path d="m131.658 311.488c-15.918 0-28.869 12.935-28.869 28.835s12.951 28.835 28.869 28.835c15.934 0 28.898-12.935 28.898-28.835s-12.964-28.835-28.898-28.835zm0 42.558c-7.584 0-13.754-6.156-13.754-13.723s6.17-13.723 13.754-13.723c7.6 0 13.783 6.156 13.783 13.723s-6.183 13.723-13.783 13.723z"/><path d="m396.326 205.492c.14 0 .279-.004.419-.012 5.035-.279 8.98-4.252 8.98-9.044v-2.009c0-3.326-.846-5.984-2.741-8.61l-23.919-33.887c-4.018-5.698-9.043-8.239-16.295-8.239h-22.502c-5.287 0-9.551 3.924-9.707 8.932-.002.081-.004.161-.004.242l.028 37.657c0 8.254 7.344 14.97 16.371 14.97zm-50.649-46.688h17.094c2.648 0 2.922.389 3.943 1.837l20.991 29.739h-40.748c-.676 0-1.071-.165-1.257-.292z"/><path d="m494.089 296.137v-52.671c.091-.468.142-.95.142-1.444s-.051-.977-.142-1.444v-10.242c0-20.076-12.932-34.097-31.448-34.097h-7.879c-6.284 0-8.484-2.917-14.491-12.141-.91-1.397-1.861-2.857-2.875-4.359l-29.191-43.352c-.516-.766-1.02-1.522-1.517-2.268-7.74-11.611-15.743-23.618-38.815-23.618h-45.826c-12.51 0-20.786 6.778-22.706 18.596-.065.401-.098.806-.098 1.212v67.542h-16.683v-63.751c0-7.225-5.882-13.102-13.112-13.102h-78.588c-7.23 0-13.112 5.877-13.112 13.102v63.75h-19.574v-63.75c0-7.225-5.882-13.102-13.112-13.102h-78.586c-7.23 0-13.112 5.877-13.112 13.102v63.75h-17.013c-9.855 0-17.873 8.01-17.873 17.856v80.264c-10.615 2.743-18.478 12.39-18.478 23.838 0 13.59 11.056 24.647 24.646 24.647h45.906c2.137 31.812 28.719 57.045 61.106 57.045s58.969-25.233 61.106-57.045h53.246c4.174 0 7.557-3.383 7.557-7.556s-3.383-7.556-7.557-7.556h-54.098c-1.24-6.804-3.607-13.217-6.907-19.042h159.816c-3.3 5.825-5.667 12.237-6.907 19.042h-57.81c-4.174 0-7.557 3.383-7.557 7.556s3.383 7.556 7.557 7.556h56.958c2.137 31.812 28.718 57.045 61.106 57.045s58.969-25.233 61.106-57.045h28.052c13.605 0 24.674-11.057 24.674-24.647 0-11.235-7.585-20.729-17.911-23.671zm-301.226-160.027h74.581v61.741h-74.581zm-177.748 183.698c0-5.242 4.276-9.507 9.531-9.507h53.665c-3.3 5.825-5.667 12.237-6.907 19.042h-46.758c-5.255 0-9.531-4.277-9.531-9.535zm116.543 66.58c-25.446 0-46.147-20.665-46.147-46.065s20.701-46.065 46.147-46.065c12.787 0 24.372 5.221 32.738 13.636.081.087.161.174.246.257 8.136 8.309 13.163 19.663 13.163 32.173 0 25.399-20.701 46.064-46.147 46.064zm167.584-146.744h-235.515c-4.174 0-7.557 3.383-7.557 7.556s3.383 7.556 7.557 7.556h235.515v40.433h-126.276c-10.901-9.958-25.405-16.044-41.308-16.044s-30.407 6.086-41.308 16.044h-56.758v-79.483c0-1.539 1.212-2.744 2.759-2.744h53.619c4.174 0 7.557-3.383 7.557-7.556s-3.383-7.556-7.557-7.556h-21.491v-61.74h74.581v61.741h-19.734c-4.174 0-7.557 3.383-7.557 7.556s3.383 7.556 7.557 7.556h150.417c.41.069.829.113 1.259.113s.849-.044 1.259-.113h22.981zm15.115-108.672c.667-3.404 2.264-5.36 7.69-5.36h45.826c14.981 0 18.979 5.998 26.238 16.887.511.767 1.029 1.544 1.558 2.329l29.195 43.358c.971 1.437 1.876 2.827 2.742 4.158 6.366 9.774 12.379 19.006 27.157 19.006h7.879c12.043 0 16.333 9.807 16.333 18.985v4.131h-22.285c-9.933 0-18.014 8.086-18.014 18.025v7.866c0 9.939 8.081 18.025 18.014 18.025h22.285v16.806h-39.499c-10.901-9.958-25.405-16.044-41.308-16.044s-30.407 6.086-41.308 16.044h-42.503zm164.617 118.606v13.693h-22.284c-1.572 0-2.9-1.334-2.9-2.913v-7.866c0-1.579 1.328-2.913 2.9-2.913h22.284zm-80.807 136.81c-25.445 0-46.147-20.665-46.147-46.065s20.701-46.065 46.147-46.065 46.147 20.665 46.147 46.065-20.701 46.065-46.147 46.065zm89.159-57.045h-28.904c-1.24-6.804-3.607-13.217-6.907-19.042h35.811c5.271 0 9.56 4.265 9.56 9.507-.001 5.258-4.289 9.535-9.56 9.535z"/></svg>