<svg id="Capa_1" enable-background="new 0 0 512 512" height="512" viewBox="0 0 512 512" width="512" xmlns="http://www.w3.org/2000/svg"><g><path d="m17.143 299.601c0 5.22 4.247 9.467 9.467 9.467h27.344c5.22 0 9.467-4.246 9.467-9.467v-47.763h7.248c5.22 0 9.467-4.247 9.467-9.467v-27.344c0-5.22-4.246-9.467-9.467-9.467h-7.248v-.828c0-5.043 4.103-9.147 9.147-9.147h7.697c5.22 0 9.467-4.247 9.467-9.467v-27.344c0-5.22-4.246-9.467-9.467-9.467h-7.697c-30.562 0-55.425 24.864-55.425 55.425v.828h-7.247c-5.22 0-9.467 4.247-9.467 9.467v27.344c0 5.22 4.246 9.467 9.467 9.467h7.247zm-1.758-62.718v-16.368h7.91c4.855 0 8.804-3.949 8.804-8.804v-6.979c0-22.316 18.155-40.47 40.47-40.47h2.208v16.368h-2.209c-13.29 0-24.102 10.812-24.102 24.102v6.979c0 4.855 3.95 8.804 8.804 8.804h7.91v16.368h-7.91c-4.855 0-8.804 3.949-8.804 8.804v48.426h-16.368v-48.426c0-4.855-3.949-8.804-8.804-8.804z"/><path d="m239.474 256.235c9.673 0 18.95-3.571 26.122-10.055 3.064-2.77 3.302-7.498.532-10.561s-7.498-3.301-10.561-.532c-4.418 3.994-10.133 6.194-16.092 6.194-5.96 0-11.674-2.199-16.092-6.194-3.065-2.77-7.792-2.532-10.561.532-2.77 3.063-2.531 7.792.532 10.561 7.17 6.484 16.448 10.055 26.12 10.055z"/><path d="m274.327 460.089c-3.677 1.229-7.464 2.071-11.316 2.519 13.773-21.205 15.463-48.499 3.543-71.598-1.578-3.058-4.692-5.055-8.127-5.211-3.419-.145-6.684 1.54-8.523 4.424-2.055 3.223-4.449 6.25-7.116 8.997-7.485 7.709-16.71 12.989-26.967 15.485-4.43-18.713-21.235-32.474-41.124-32.474-14.53 0-27.851 7.369-35.593 19.462h-13.151c-3.108 0-5.939 1.578-7.574 4.22-1.633 2.64-1.78 5.875-.393 8.652.595 1.191 1.385 2.576 2.414 4.039-1.992 1.44-3.302 3.642-3.6 6.147-.367 3.085.866 6.083 3.298 8.018 2.676 2.13 7.841 5.457 14.982 6.497 3.522 9.48 10.325 17.377 19.25 22.283.644 2.1 1.389 4.15 2.212 6.155h-125.372c-.495 0-.897-.402-.897-.897v-4.82c0-31.393 9.806-61.306 28.359-86.505 2.449-3.325 1.737-8.007-1.588-10.455s-8.007-1.737-10.455 1.588c-20.458 27.786-31.272 60.766-31.272 95.372v4.82c0 8.741 7.111 15.852 15.852 15.852h133.748c13.169 18.005 34.421 29.341 57.695 29.341 26.671 0 50.927-14.693 63.304-38.344 1.827-3.491 1.358-7.684-1.195-10.681-2.562-3.007-6.642-4.139-10.394-2.886zm-51.715 36.956c-25.462 0-47.875-17.145-54.507-41.7-.735-2.712-2.615-4.963-5.156-6.177-7.328-3.499-12.686-9.998-14.701-17.83-1.016-3.952-4.55-6.705-8.603-6.705-.25-.001-.497-.003-.739-.013.562-.992.919-2.105 1.027-3.272.152-1.652-.208-3.288-.985-4.701h3.644c3.321 0 6.343-1.834 7.887-4.785 4.738-9.053 14.019-14.677 24.22-14.677 14.523 0 26.501 11.353 27.269 25.843.12 2.269 1.187 4.405 2.928 5.862 1.736 1.454 4.022 2.123 6.261 1.846 16.045-1.996 31.09-9.49 42.362-21.1 1.107-1.14 2.177-2.319 3.207-3.532 6.506 19.721 1.684 41.712-13.132 56.972-.003.003-.005.006-.008.009s-.006.006-.009.009c-2.291 2.362-3.022 5.75-1.906 8.844s3.841 5.235 7.111 5.588c5.617.607 11.211.541 16.675-.15-10.592 12.358-26.119 19.669-42.845 19.669z"/><ellipse cx="196.239" cy="185.271" rx="10.734" ry="10.734" transform="matrix(.987 -.16 .16 .987 -27.143 33.826)"/><ellipse cx="282.709" cy="185.271" rx="10.734" ry="10.734" transform="matrix(.987 -.16 .16 .987 -26.027 47.677)"/><path d="m477.02 253.652h-57.473c-19.052 0-34.551 15.5-34.551 34.551v33.099c-23.278-12.994-49.353-19.981-76.28-20.319v-19.212c8.479-9.726 15.489-20.546 20.869-32.323 9.398-1.293 18.066-5.641 24.796-12.521 7.898-8.073 12.247-18.74 12.247-30.036v-8.636c0-14.702-10.79-26.932-24.868-29.186l-.077-62.403c0-7.132 1.74-14.449 5.032-21.158 4.08-8.315 6.149-17.252 6.149-26.565 0-27.841-18.781-51.953-45.675-58.637-4.799-1.192-9.845 1.169-11.999 5.615-5.779 11.938-17.598 19.354-30.848 19.354h-65.222c-9.939 0-19.823 2.414-28.584 6.982-3.662 1.909-5.083 6.425-3.174 10.087s6.424 5.081 10.087 3.174c6.73-3.508 14.021-5.288 21.671-5.288h65.222c17.48 0 33.785-9.489 42.532-24.461 18.435 6.085 31.035 23.374 31.035 43.172 0 7.009-1.554 13.73-4.619 19.976-4.293 8.748-6.562 18.343-6.562 27.746v14.108c-3.911-2.065-8.361-3.241-13.083-3.241h-148.341c-4.745 0-9.216 1.186-13.141 3.27v-33.608c0-7.663 1.785-14.966 5.304-21.705 1.912-3.66.494-8.178-3.166-10.09-3.662-1.913-8.179-.494-10.09 3.166-4.581 8.772-7.003 18.672-7.003 28.628l-.019 81.878c-14.077 2.253-24.867 14.483-24.867 29.186v8.636c0 11.296 4.349 21.963 12.246 30.036 6.73 6.88 15.398 11.228 24.796 12.521 6.214 13.602 14.592 25.933 24.917 36.764v14.771c-12.403.166-24.64 1.723-36.513 4.671-25.056 6.173-48.432 18.32-68.055 35.673-3.094 2.735-3.384 7.461-.648 10.555 2.744 3.102 7.472 3.376 10.555.648 15.9-14.06 34.515-24.356 54.508-30.384 7.062 29.521 33.463 50.849 64.627 50.849h85.488c31.172 0 57.578-21.34 64.632-50.871 12.682 3.82 24.818 9.385 36.121 16.584v6.968c0 19.052 15.499 34.551 34.551 34.551h8.137c16.375 24.181 25.04 52.388 25.04 81.759v4.82c0 .495-.402.897-.897.897h-138.808c-4.13 0-7.478 3.348-7.478 7.477 0 4.13 3.348 7.478 7.478 7.478h138.808c8.741 0 15.852-7.111 15.852-15.852v-4.82c0-29.036-7.666-57.054-22.272-81.759h31.613c19.052 0 34.551-15.499 34.551-34.551v-57.473c-.001-19.052-15.5-34.551-34.551-34.551zm-322.411-18.762c-15.071-.362-27.333-12.922-27.333-27.999v-8.636c0-8.052 6.551-14.603 14.602-14.603h2.788c4.13 0 7.477-3.348 7.477-7.477v-30.527c0-7.256 5.904-13.16 13.161-13.16h148.341c7.257 0 13.161 5.904 13.161 13.16v30.527c0 4.13 3.348 7.477 7.477 7.477h2.788c8.051 0 14.602 6.551 14.602 14.603v8.636c0 15.077-12.261 27.638-27.333 27.999-2.953.071-5.587 1.873-6.723 4.599-5.881 14.112-14.282 26.79-24.971 37.683l-7.187 7.324c-12.214 12.448-28.545 19.303-45.984 19.303-17.44 0-33.771-6.855-45.986-19.303l-7.186-7.324c-10.689-10.893-19.091-23.572-24.972-37.683-1.135-2.726-3.769-4.528-6.722-4.599zm129.633 123.151h-85.488c-24.178 0-44.656-16.558-50.105-39.466 9.061-1.746 18.326-2.649 27.684-2.649 7.114 0 12.902-5.788 12.902-12.902v-2.193c14.136 11.607 31.674 17.924 50.239 17.924 20.381 0 39.525-7.611 54.286-21.482v5.751c0 7.114 5.788 12.902 12.902 12.902 9.369 0 18.63.894 27.688 2.631-5.441 22.916-25.923 39.484-50.108 39.484zm212.373-12.365c0 10.805-8.79 19.596-19.596 19.596h-57.473c-10.805 0-19.596-8.79-19.596-19.596v-57.473c0-10.805 8.79-19.596 19.596-19.596h57.473c10.805 0 19.596 8.791 19.596 19.596z"/><path d="m448.283 288.721c-15.56 0-28.219 12.659-28.219 28.218 0 15.56 12.659 28.218 28.219 28.218s28.218-12.659 28.218-28.218c.001-15.559-12.658-28.218-28.218-28.218zm0 41.481c-7.313 0-13.264-5.95-13.264-13.263s5.95-13.263 13.264-13.263c7.313 0 13.263 5.95 13.263 13.263.001 7.314-5.949 13.263-13.263 13.263z"/><circle cx="478.385" cy="286.197" r="8.412"/><circle cx="163.339" cy="419.733" r="8.412"/></g></svg>